# xmcd
#
# Track frame offsets: 
#        150
#        15940
#        31574
#        45802
#
# Disc length: 830 seconds
#
# Revision: 0
# Processed by: cddbd v1.5.2PL0 Copyright (c) Steve Scherf et al.
# Submitted via: ExactAudioCopyFreeDBPlugin 1.0
#
DISCID=14033c04
DTITLE=Rosie Vanier - Neon Nightmare
DYEAR=2012
DGENRE=Alternative
TTITLE0=Neon Nightmare
TTITLE1=In The Hear And The Now
TTITLE2=Subway Stars
TTITLE3=CoCo Rosie
EXTD=
EXTT0=
EXTT1=
EXTT2=
EXTT3=
PLAYORDER=
